<?xml version="1.0" encoding="iso-8859-1"?>
<!-- Uploaded to: SVG Repo, www.svgrepo.com, Generator: SVG Repo Mixer Tools -->
<!DOCTYPE svg PUBLIC "-//W3C//DTD SVG 1.1//EN" "http://www.w3.org/Graphics/SVG/1.1/DTD/svg11.dtd">
<svg height="800px" width="800px" version="1.1" id="Capa_1" xmlns="http://www.w3.org/2000/svg" xmlns:xlink="http://www.w3.org/1999/xlink" 
	 viewBox="0 0 454.17 454.17" xml:space="preserve">
<g>
	<linearGradient id="SVGID_1_" gradientUnits="userSpaceOnUse" x1="110.585" y1="115.5801" x2="110.585" y2="3.5801">
		<stop  offset="0" style="stop-color:#000000"/>
		<stop  offset="0.4333" style="stop-color:#747474;stop-opacity:0.5667"/>
		<stop  offset="0.8257" style="stop-color:#D8D8D8;stop-opacity:0.1743"/>
		<stop  offset="1" style="stop-color:#FFFFFF;stop-opacity:0"/>
	</linearGradient>
	<polyline style="fill:url(#SVGID_1_);" points="78.085,20.58 105.585,54.58 86.585,62.58 138.585,115.58 122.085,76.08 
		143.085,68.08 106.085,3.58 	"/>
	<linearGradient id="SVGID_2_" gradientUnits="userSpaceOnUse" x1="227.085" y1="413.0801" x2="227.085" y2="451.0801">
		<stop  offset="0" style="stop-color:#0071BC"/>
		<stop  offset="0.121" style="stop-color:#0071BC;stop-opacity:0.9456"/>
		<stop  offset="0.2092" style="stop-color:#0071BC;stop-opacity:0.8508"/>
		<stop  offset="1" style="stop-color:#0071BC;stop-opacity:0"/>
	</linearGradient>
	<polygon style="fill:url(#SVGID_2_);" points="29.585,419.58 45.585,413.08 61.585,422.08 78.085,423.58 100.585,415.08 
		114.585,422.08 134.085,423.58 157.585,414.58 175.585,422.58 194.085,423.08 213.585,413.08 230.085,422.08 251.585,422.08 
		271.585,413.58 286.085,422.08 312.085,422.08 327.585,414.08 351.085,424.08 370.085,421.58 384.085,414.08 397.585,425.08 
		451.085,451.08 3.085,451.08 	"/>
	<linearGradient id="SVGID_3_" gradientUnits="userSpaceOnUse" x1="167.965" y1="382.6601" x2="292.355" y2="382.6601">
		<stop  offset="0" style="stop-color:#FF8015"/>
		<stop  offset="0.2122" style="stop-color:#FB7E15"/>
		<stop  offset="0.4183" style="stop-color:#EF7814"/>
		<stop  offset="0.6218" style="stop-color:#DC6E12"/>
		<stop  offset="0.8225" style="stop-color:#C16110"/>
		<stop  offset="1" style="stop-color:#A2510D"/>
	</linearGradient>
	<path style="fill:url(#SVGID_3_);" d="M291.165,348.03c0.37,1.71,0.77,3.36,1.19,4.98c-15.86-0.92-38.21,7.63-66.81,25.61
		c-24.49,15.39-46.42,33.31-52.88,38.72c-1.67-0.57-3.25-1.26-4.7-2.06c12.32-10.62,80.02-67.3,121.36-67.3
		C289.735,347.98,290.965,348.02,291.165,348.03z"/>
	<linearGradient id="SVGID_4_" gradientUnits="userSpaceOnUse" x1="305.635" y1="362.7201" x2="319.475" y2="362.7201">
		<stop  offset="0" style="stop-color:#FF8015"/>
		<stop  offset="0.2122" style="stop-color:#FB7E15"/>
		<stop  offset="0.4183" style="stop-color:#EF7814"/>
		<stop  offset="0.6218" style="stop-color:#DC6E12"/>
		<stop  offset="0.8225" style="stop-color:#C16110"/>
		<stop  offset="1" style="stop-color:#A2510D"/>
	</linearGradient>
	<path style="fill:url(#SVGID_4_);" d="M315.825,362.65c1.69,2.86,2.9,5.94,3.65,9.13c-2.6-4.64-6.23-8.95-10.91-12.85
		c-0.93-0.78-1.9-1.47-2.93-2.09c0.65-1,1.33-2.05,2.06-3.18C310.915,356.01,313.685,359.03,315.825,362.65z"/>
	<linearGradient id="SVGID_5_" gradientUnits="userSpaceOnUse" x1="286.3788" y1="373.4955" x2="309.8632" y2="414.1715">
		<stop  offset="0" style="stop-color:#F6A91D"/>
		<stop  offset="0.0181" style="stop-color:#F0A51C"/>
		<stop  offset="0.1202" style="stop-color:#D19019"/>
		<stop  offset="0.2325" style="stop-color:#B87E16"/>
		<stop  offset="0.357" style="stop-color:#A47114"/>
		<stop  offset="0.5001" style="stop-color:#966712"/>
		<stop  offset="0.6782" style="stop-color:#8E6211"/>
		<stop  offset="1" style="stop-color:#8C6011"/>
	</linearGradient>
	<path style="fill:url(#SVGID_5_);" d="M303.445,365.07c10.64,8.88,14.66,19.75,11.95,32.31c-4.53,8.37-11.8,18.21-14.39,21.71
		c-0.09,0.12-0.17,0.23-0.25,0.34c-4.65,0.18-9.37-0.34-13.63-1.57c3.01-6.79,13.12-30.96,15.25-53.6
		C302.735,364.52,303.095,364.78,303.445,365.07z M311.255,387.49c0.46-2.16-0.93-4.28-3.09-4.74c-2.16-0.45-4.28,0.93-4.74,3.09
		l-2.66,12.67c-0.46,2.16,0.92,4.28,3.09,4.74c0.27,0.06,0.55,0.09,0.82,0.09c1.86,0,3.52-1.3,3.91-3.18L311.255,387.49z"/>
	<linearGradient id="SVGID_6_" gradientUnits="userSpaceOnUse" x1="238.665" y1="360.8466" x2="238.665" y2="419.4751">
		<stop  offset="0" style="stop-color:#F6A91D"/>
		<stop  offset="0.1863" style="stop-color:#E8A01B"/>
		<stop  offset="0.5355" style="stop-color:#C58717"/>
		<stop  offset="1" style="stop-color:#8C6011"/>
	</linearGradient>
	<path style="fill:url(#SVGID_6_);" d="M182.745,419.34c27.99-22.9,84.1-62.77,111.84-58.12c-1.49,21.9-11.97,47.02-14.82,53.49
		l-6.97-4.19c-1.26-0.77-2.85-0.77-4.12,0l-7.18,4.32c-10.28,6.18-27.65,6.18-37.93,0l-7.18-4.32c-1.27-0.77-2.86-0.77-4.13,0
		l-7.18,4.32C199.095,418.43,190.735,419.92,182.745,419.34z M279.925,380.83c0.45-2.17-0.93-4.29-3.09-4.74
		c-2.17-0.46-4.29,0.93-4.74,3.09l-2.67,12.66c-0.45,2.17,0.93,4.29,3.09,4.74c0.28,0.06,0.56,0.09,0.83,0.09
		c1.85,0,3.51-1.29,3.91-3.18L279.925,380.83z"/>
	<linearGradient id="SVGID_7_" gradientUnits="userSpaceOnUse" x1="126.355" y1="341.4301" x2="126.355" y2="419.4751">
		<stop  offset="0" style="stop-color:#006D94"/>
		<stop  offset="0.1822" style="stop-color:#00688D"/>
		<stop  offset="0.4405" style="stop-color:#00597B"/>
		<stop  offset="0.7426" style="stop-color:#00405D"/>
		<stop  offset="1" style="stop-color:#00273D"/>
	</linearGradient>
	<path style="fill:url(#SVGID_7_);" d="M184.345,376.67c4.64,0,8.81,2.82,10.66,6.94c-18.99,13.85-32.72,25.97-34.28,27.37
		l-0.76-0.46c-1.27-0.77-2.85-0.77-4.12,0l-7.19,4.32c-10.28,6.18-27.64,6.18-37.92,0l-7.19-4.32c-1.26-0.77-2.85-0.77-4.12,0
		l-7.18,4.32c-8.43,5.07-21.61,5.97-31.75,2.73c-0.06-0.61-0.1-1.22-0.1-1.85c0-4.39,1.44-8.53,4.16-11.98c0.71-0.9,1-2.07,0.8-3.19
		c-0.21-1.13-0.89-2.12-1.87-2.71c-3.62-2.2-5.78-6.03-5.78-10.25c0-6.62,5.38-12,12-12c0.32,0,0.66,0.02,1.04,0.06
		c1.35,0.14,2.68-0.42,3.53-1.48c0.85-1.05,1.1-2.47,0.68-3.76c-0.76-2.27-1.14-4.62-1.14-6.98c0-12.13,9.87-22,22-22
		c8.74,0,16.66,5.18,20.18,13.2c0.51,1.17,1.55,2.03,2.8,2.31c1.25,0.27,2.55-0.07,3.51-0.91c1.76-1.56,4.03-2.42,6.37-2.42
		c5.2,0,9.44,4.08,9.64,9.28c0.06,1.31,0.75,2.51,1.86,3.22c1.11,0.7,2.49,0.81,3.7,0.3c2.33-0.98,4.8-1.48,7.36-1.48
		c8.31,0,15.79,5.55,18.19,13.5c0.41,1.34,1.49,2.38,2.86,2.72c1.36,0.34,2.8-0.06,3.8-1.05
		C178.295,377.89,181.225,376.67,184.345,376.67z"/>
	<linearGradient id="SVGID_8_" gradientUnits="userSpaceOnUse" x1="149.555" y1="277.6151" x2="193.8154" y2="277.6151">
		<stop  offset="0" style="stop-color:#FFFFFF"/>
		<stop  offset="0.1387" style="stop-color:#FBFBFB"/>
		<stop  offset="0.2809" style="stop-color:#EFEFEF"/>
		<stop  offset="0.4249" style="stop-color:#DADADA"/>
		<stop  offset="0.5701" style="stop-color:#BDBDBD"/>
		<stop  offset="0.7162" style="stop-color:#989898"/>
		<stop  offset="0.8609" style="stop-color:#6B6B6B"/>
		<stop  offset="1" style="stop-color:#393939"/>
	</linearGradient>
	<path style="fill:url(#SVGID_8_);" d="M193.725,242.82c0.71,20.45-2.49,49.58-19.41,80.63c-9.86-0.6-18.07-0.41-24.76-0.24
		c30.95-47.79,31.36-78.35,29.29-91.43l14.47,4.03C193.495,238.07,193.635,240.41,193.725,242.82z"/>
	<linearGradient id="SVGID_9_" gradientUnits="userSpaceOnUse" x1="157.1912" y1="304.2242" x2="291.0776" y2="226.9248">
		<stop  offset="0" style="stop-color:#FFFFFF"/>
		<stop  offset="0.1387" style="stop-color:#FBFBFB"/>
		<stop  offset="0.2809" style="stop-color:#EFEFEF"/>
		<stop  offset="0.4249" style="stop-color:#DADADA"/>
		<stop  offset="0.5701" style="stop-color:#BDBDBD"/>
		<stop  offset="0.7162" style="stop-color:#989898"/>
		<stop  offset="0.8609" style="stop-color:#6B6B6B"/>
		<stop  offset="1" style="stop-color:#393939"/>
	</linearGradient>
	<path style="fill:url(#SVGID_9_);" d="M195.105,202.26l97.24,26.86c-3.23,26.58-5.49,54.92-5.01,80.04
		c-3.78-0.13-7.77-0.08-11.9,0.18c-36.08,2.18-78.37,18.28-99.54,27.28c22.55-36.03,26.65-70.53,25.82-94.08
		C201.085,224.46,197.615,210.33,195.105,202.26z"/>
	<linearGradient id="SVGID_10_" gradientUnits="userSpaceOnUse" x1="207.9711" y1="350.6788" x2="198.4718" y2="334.2255">
		<stop  offset="0" style="stop-color:#FFFFFF"/>
		<stop  offset="0.1387" style="stop-color:#FBFBFB"/>
		<stop  offset="0.2809" style="stop-color:#EFEFEF"/>
		<stop  offset="0.4249" style="stop-color:#DADADA"/>
		<stop  offset="0.5701" style="stop-color:#BDBDBD"/>
		<stop  offset="0.7162" style="stop-color:#989898"/>
		<stop  offset="0.8609" style="stop-color:#6B6B6B"/>
		<stop  offset="1" style="stop-color:#393939"/>
	</linearGradient>
	<path style="fill:url(#SVGID_10_);" d="M201.635,335.05c7.55,1.49,15.35,3.42,23.36,5.8c-17.1,1.75-30.99,7.22-39,11.08l1.99-11.65
		C192.125,338.62,196.705,336.84,201.635,335.05z"/>
	<linearGradient id="SVGID_11_" gradientUnits="userSpaceOnUse" x1="243.515" y1="345.5701" x2="243.515" y2="317.7101">
		<stop  offset="0" style="stop-color:#FFFFFF"/>
		<stop  offset="0.1387" style="stop-color:#FBFBFB"/>
		<stop  offset="0.2809" style="stop-color:#EFEFEF"/>
		<stop  offset="0.4249" style="stop-color:#DADADA"/>
		<stop  offset="0.5701" style="stop-color:#BDBDBD"/>
		<stop  offset="0.7162" style="stop-color:#989898"/>
		<stop  offset="0.8609" style="stop-color:#6B6B6B"/>
		<stop  offset="1" style="stop-color:#393939"/>
	</linearGradient>
	<path style="fill:url(#SVGID_11_);" d="M271.035,317.71l-3.59,25.98c-1.88,0.57-3.77,1.2-5.68,1.88
		c-15.85-6.61-31.19-11.8-45.77-15.49C233.245,324.47,252.805,319.42,271.035,317.71z"/>
	<linearGradient id="SVGID_12_" gradientUnits="userSpaceOnUse" x1="317.6473" y1="316.823" x2="340.0828" y2="277.9636">
		<stop  offset="0" style="stop-color:#FFFFFF"/>
		<stop  offset="0.13" style="stop-color:#ECECEC"/>
		<stop  offset="0.3929" style="stop-color:#BCBCBC"/>
		<stop  offset="0.7612" style="stop-color:#6F6F6F"/>
		<stop  offset="1" style="stop-color:#393939"/>
	</linearGradient>
	<path style="fill:url(#SVGID_12_);" d="M332.035,289.43c4.01-4.13,7.92-7.24,11.35-9.56c-6.56,10.99-15.02,25.08-23.16,38.44
		c-1.71-1.17-3.55-2.23-5.51-3.18C318.985,305.93,324.615,297.06,332.035,289.43z"/>
	<linearGradient id="SVGID_13_" gradientUnits="userSpaceOnUse" x1="295.3204" y1="244.1951" x2="349.0551" y2="244.1951">
		<stop  offset="0" style="stop-color:#FFFFFF"/>
		<stop  offset="0.1387" style="stop-color:#FBFBFB"/>
		<stop  offset="0.2809" style="stop-color:#EFEFEF"/>
		<stop  offset="0.4249" style="stop-color:#DADADA"/>
		<stop  offset="0.5701" style="stop-color:#BDBDBD"/>
		<stop  offset="0.7162" style="stop-color:#989898"/>
		<stop  offset="0.8609" style="stop-color:#6B6B6B"/>
		<stop  offset="1" style="stop-color:#393939"/>
	</linearGradient>
	<path style="fill:url(#SVGID_13_);" d="M313.535,147.96l35.52,119.6c-4.73,2.07-13.3,6.69-22.34,15.87
		c-16.15,16.39-24.52,37.84-28.82,57c-4.31-26.56-3.21-66.43,3.31-117.1C305.165,192.55,310.285,164.53,313.535,147.96z"/>
	<linearGradient id="SVGID_14_" gradientUnits="userSpaceOnUse" x1="323.3235" y1="346.0335" x2="377.1156" y2="252.8628">
		<stop  offset="0" style="stop-color:#FFFFFF"/>
		<stop  offset="0.1387" style="stop-color:#FBFBFB"/>
		<stop  offset="0.2809" style="stop-color:#EFEFEF"/>
		<stop  offset="0.4249" style="stop-color:#DADADA"/>
		<stop  offset="0.5701" style="stop-color:#BDBDBD"/>
		<stop  offset="0.7162" style="stop-color:#989898"/>
		<stop  offset="0.8609" style="stop-color:#6B6B6B"/>
		<stop  offset="1" style="stop-color:#393939"/>
	</linearGradient>
	<path style="fill:url(#SVGID_14_);" d="M375.985,252.21c5.28,26.9,2.97,49.19-7.09,68.04c-8.23,15.42-20.78,26.4-31.34,34
		c-0.31-12.9-4.06-23.18-11.16-30.68c13.66-22.4,28.33-47.07,33.68-56.09c1.13-1.9,0.5-4.35-1.4-5.48
		c-0.96-0.56-2.05-0.69-3.05-0.43l-4.85-16.32L375.985,252.21z"/>
	<linearGradient id="SVGID_15_" gradientUnits="userSpaceOnUse" x1="221.765" y1="208.6738" x2="287.545" y2="208.6738">
		<stop  offset="0" style="stop-color:#FFFFFF"/>
		<stop  offset="0.1387" style="stop-color:#FBFBFB"/>
		<stop  offset="0.2809" style="stop-color:#EFEFEF"/>
		<stop  offset="0.4249" style="stop-color:#DADADA"/>
		<stop  offset="0.5701" style="stop-color:#BDBDBD"/>
		<stop  offset="0.7162" style="stop-color:#989898"/>
		<stop  offset="0.8609" style="stop-color:#6B6B6B"/>
		<stop  offset="1" style="stop-color:#393939"/>
	</linearGradient>
	<path style="fill:url(#SVGID_15_);" d="M287.545,199.43l-2.93,19.25l-62.85-17.36C239.325,199.12,264.085,197.72,287.545,199.43z"
		/>
	<linearGradient id="SVGID_16_" gradientUnits="userSpaceOnUse" x1="221.465" y1="158.4201" x2="237.285" y2="158.4201">
		<stop  offset="0" style="stop-color:#FFFFFF"/>
		<stop  offset="0.1387" style="stop-color:#FBFBFB"/>
		<stop  offset="0.2809" style="stop-color:#EFEFEF"/>
		<stop  offset="0.4249" style="stop-color:#DADADA"/>
		<stop  offset="0.5701" style="stop-color:#BDBDBD"/>
		<stop  offset="0.7162" style="stop-color:#989898"/>
		<stop  offset="0.8609" style="stop-color:#6B6B6B"/>
		<stop  offset="1" style="stop-color:#393939"/>
	</linearGradient>
	<path style="fill:url(#SVGID_16_);" d="M222.175,140.21l15.11,4.39c-3.15,10.11-8.09,21.4-15.82,32.03
		C223.505,166.12,224.945,152.32,222.175,140.21z"/>
	<linearGradient id="SVGID_17_" gradientUnits="userSpaceOnUse" x1="344.4239" y1="228.5801" x2="344.4239" y2="137.4201">
		<stop  offset="0" style="stop-color:#FFFFFF"/>
		<stop  offset="0.1387" style="stop-color:#FBFBFB"/>
		<stop  offset="0.2809" style="stop-color:#EFEFEF"/>
		<stop  offset="0.4249" style="stop-color:#DADADA"/>
		<stop  offset="0.5701" style="stop-color:#BDBDBD"/>
		<stop  offset="0.7162" style="stop-color:#989898"/>
		<stop  offset="0.8609" style="stop-color:#6B6B6B"/>
		<stop  offset="1" style="stop-color:#393939"/>
	</linearGradient>
	<path style="fill:url(#SVGID_17_);" d="M367.255,151.68c4.57,18.32,4.76,54.48-7.9,76.9c-1.08-9.16-6.58-18.7-21.23-25.92
		l-19.38-65.24l31.42,9.24L367.255,151.68z"/>
	<linearGradient id="SVGID_18_" gradientUnits="userSpaceOnUse" x1="255.1745" y1="202.6268" x2="273.6235" y2="122.7151">
		<stop  offset="0" style="stop-color:#FFFFFF"/>
		<stop  offset="0.1387" style="stop-color:#FBFBFB"/>
		<stop  offset="0.2809" style="stop-color:#EFEFEF"/>
		<stop  offset="0.4249" style="stop-color:#DADADA"/>
		<stop  offset="0.5701" style="stop-color:#BDBDBD"/>
		<stop  offset="0.7162" style="stop-color:#989898"/>
		<stop  offset="0.8609" style="stop-color:#6B6B6B"/>
		<stop  offset="1" style="stop-color:#393939"/>
	</linearGradient>
	<path style="fill:url(#SVGID_18_);" d="M250.645,117.41l57.48,16.89c-1.81,8.55-6.28,30.49-10.62,58.02
		c-1.64-0.19-3.37-0.36-5.23-0.53c-26.71-2.38-55.82-0.58-75.03,2.08C244.755,166.71,249.745,130.87,250.645,117.41z"/>
	<linearGradient id="SVGID_19_" gradientUnits="userSpaceOnUse" x1="239.584" y1="120.8504" x2="234.6581" y2="112.3185">
		<stop  offset="0" style="stop-color:#FFFFFF"/>
		<stop  offset="0.1387" style="stop-color:#FBFBFB"/>
		<stop  offset="0.2809" style="stop-color:#EFEFEF"/>
		<stop  offset="0.4249" style="stop-color:#DADADA"/>
		<stop  offset="0.5701" style="stop-color:#BDBDBD"/>
		<stop  offset="0.7162" style="stop-color:#989898"/>
		<stop  offset="0.8609" style="stop-color:#6B6B6B"/>
		<stop  offset="1" style="stop-color:#393939"/>
	</linearGradient>
	<path style="fill:url(#SVGID_19_);" d="M234.205,112.58l8.54,2.51c-0.06,1.1-0.16,2.49-0.32,4.12l-11.62-2.33
		C231.865,115.66,233.015,114.21,234.205,112.58z"/>
	<linearGradient id="SVGID_20_" gradientUnits="userSpaceOnUse" x1="305.705" y1="125.1351" x2="343.8951" y2="125.1351">
		<stop  offset="0" style="stop-color:#002C43"/>
		<stop  offset="0.5344" style="stop-color:#006D94"/>
	</linearGradient>
	<path style="fill:url(#SVGID_20_);" d="M343.895,136.48l-38.19-11.23l1.58-11.46c4.19,1,8.27,2.27,12.14,3.85
		C327.655,120.99,337.805,126.82,343.895,136.48z"/>
	<linearGradient id="SVGID_21_" gradientUnits="userSpaceOnUse" x1="290.7973" y1="127.0968" x2="278.6603" y2="106.075">
		<stop  offset="0" style="stop-color:#FFFFFF"/>
		<stop  offset="0.1387" style="stop-color:#FBFBFB"/>
		<stop  offset="0.2809" style="stop-color:#EFEFEF"/>
		<stop  offset="0.4249" style="stop-color:#DADADA"/>
		<stop  offset="0.5701" style="stop-color:#BDBDBD"/>
		<stop  offset="0.7162" style="stop-color:#989898"/>
		<stop  offset="0.8609" style="stop-color:#6B6B6B"/>
		<stop  offset="1" style="stop-color:#393939"/>
	</linearGradient>
	<path style="fill:url(#SVGID_21_);" d="M299.425,112.26l-1.48,10.71l-32.18-9.45C275.815,110.93,287.755,110.51,299.425,112.26z"/>
	<linearGradient id="SVGID_22_" gradientUnits="userSpaceOnUse" x1="357.3651" y1="142.8101" x2="393.7751" y2="142.8101">
		<stop  offset="0" style="stop-color:#002C43"/>
		<stop  offset="0.5344" style="stop-color:#006D94"/>
	</linearGradient>
	<path style="fill:url(#SVGID_22_);" d="M382.305,138.28c6.86,2.25,11.47,8.61,11.47,15.83c0,8.89-7.01,16.16-15.79,16.62
		c-0.32-5.84-0.98-11.42-1.97-16.48l0.87,0.26c0.37,0.11,0.75,0.16,1.13,0.16c1.72,0,3.32-1.13,3.83-2.87
		c0.62-2.12-0.59-4.35-2.71-4.97l-21.77-6.4c3.86-7.57,5.53-16.55,5.66-25.54c0.03,0,0.06,0,0.09,0c3.75,0,7.21,1.26,10,3.37
		l-3.59,4.62c-1.36,1.74-1.05,4.25,0.69,5.61c0.73,0.57,1.6,0.85,2.46,0.85c1.19,0,2.37-0.53,3.15-1.55l2.44-3.13
		c0.96,2.11,1.51,4.44,1.51,6.89c0,0.7-0.06,1.45-0.19,2.36C379.315,135.83,380.455,137.67,382.305,138.28z"/>
	<linearGradient id="SVGID_23_" gradientUnits="userSpaceOnUse" x1="108.605" y1="174.7751" x2="241.395" y2="174.7751">
		<stop  offset="0" style="stop-color:#006D94"/>
		<stop  offset="0.1822" style="stop-color:#00688D"/>
		<stop  offset="0.4405" style="stop-color:#00597B"/>
		<stop  offset="0.7426" style="stop-color:#00405D"/>
		<stop  offset="1" style="stop-color:#00273D"/>
	</linearGradient>
	<path style="fill:url(#SVGID_23_);" d="M221.885,123.26l19.51,3.9c-0.48,2.95-1.12,6.22-1.97,9.73l-32.3-9.39
		c-2.12-0.62-4.34,0.6-4.96,2.72c-0.61,2.12,0.6,4.34,2.73,4.96l8.21,2.39c6.73,18.73-1.49,46.81-3.2,52.23
		c-2.28,2.15-4.73,4.23-7.33,6.22l-38.17-10.54c-2.12-0.59-4.33,0.66-4.92,2.79c-0.58,2.13,0.67,4.34,2.79,4.92l23.5,6.49
		c1.41,3.8,4.7,13.65,6.61,27.56l-32.64-9.09c-2.12-0.59-4.33,0.65-4.92,2.78c-0.6,2.13,0.65,4.33,2.78,4.93l12.55,3.5
		c1.13,4.32,3.21,16.79-2.49,37.26c-1.12,0.17-2.22,0.26-3.35,0.26c-12.37,0-22.44-10.07-22.44-22.44c0-3.44,0.77-6.75,2.27-9.83
		c0.55-1.12,0.55-2.43-0.01-3.55c-0.56-1.11-1.6-1.9-2.83-2.14c-4.69-0.9-8.09-5.02-8.09-9.81c0-0.91,0.13-1.84,0.4-2.77
		c0.35-1.24,0.08-2.57-0.72-3.58c-0.81-1.01-2.05-1.57-3.34-1.5c-0.32,0.01-0.63,0.02-0.95,0.02c-11.03,0-20-8.97-20-20
		c0-10.97,8.93-19.94,19.9-19.99c1.78-0.01,3.34-1.19,3.83-2.9c0.48-1.71-0.21-3.54-1.72-4.48c-4.11-2.59-6.56-7.02-6.56-11.85
		c0-7.69,6.24-13.96,13.92-14c1.5,0.09,2.94-0.62,3.72-1.89c0.73-1.17,0.8-2.65,0.18-3.88c-1.43-2.86-2.28-5.89-2.58-9.04
		l11.97,12.03c0.77,0.78,1.8,1.18,2.83,1.18c0.87,0,1.75-0.28,2.48-0.86c1.59-1.25,1.99-3.5,0.93-5.23l-14.37-23.39
		c4.73-7.54,12.94-12.15,21.94-12.15c7.72,0,14.99,3.41,19.94,9.37c0.86,1.02,2.16,1.55,3.49,1.42c1.32-0.14,2.49-0.92,3.12-2.1
		c1.74-3.27,5.12-5.3,8.82-5.3c1.91,0,3.78,0.55,5.4,1.6c1.22,0.79,2.78,0.85,4.06,0.17c1.28-0.69,2.09-2.03,2.11-3.48
		c0.09-7.63,6.37-13.84,13.99-13.84c4.41,0,8.57,2.1,11.2,5.62c-1.71,5.97-4.03,10.93-6.41,14.95l-3.66-1.08
		c-2.12-0.62-4.34,0.59-4.96,2.71c-0.63,2.13,0.59,4.35,2.71,4.97l1.12,0.33c-3.07,3.81-5.51,5.79-5.79,6.01
		c-1.23,0.96-1.79,2.55-1.43,4.08C219.145,121.78,220.355,122.95,221.885,123.26z"/>
	<linearGradient id="SVGID_24_" gradientUnits="userSpaceOnUse" x1="258.8409" y1="104.8704" x2="241.124" y2="74.184">
		<stop  offset="0" style="stop-color:#FFFFFF"/>
		<stop  offset="0.1387" style="stop-color:#FBFBFB"/>
		<stop  offset="0.2809" style="stop-color:#EFEFEF"/>
		<stop  offset="0.4249" style="stop-color:#DADADA"/>
		<stop  offset="0.5701" style="stop-color:#BDBDBD"/>
		<stop  offset="0.7162" style="stop-color:#989898"/>
		<stop  offset="0.8609" style="stop-color:#6B6B6B"/>
		<stop  offset="1" style="stop-color:#393939"/>
	</linearGradient>
	<path style="fill:url(#SVGID_24_);" d="M247.955,70.24l13.81,4.07c-0.37,8.84-2.74,20.94-10.51,34.94l-12.59-3.7
		C243.365,97.08,247.565,85.37,247.955,70.24z"/>
	<linearGradient id="SVGID_25_" gradientUnits="userSpaceOnUse" x1="305.1037" y1="125.5689" x2="315.6341" y2="65.8478">
		<stop  offset="0" style="stop-color:#FFFFFF"/>
		<stop  offset="0.1387" style="stop-color:#FBFBFB"/>
		<stop  offset="0.2809" style="stop-color:#EFEFEF"/>
		<stop  offset="0.4249" style="stop-color:#DADADA"/>
		<stop  offset="0.5701" style="stop-color:#BDBDBD"/>
		<stop  offset="0.7162" style="stop-color:#989898"/>
		<stop  offset="0.8609" style="stop-color:#6B6B6B"/>
		<stop  offset="1" style="stop-color:#393939"/>
	</linearGradient>
	<path style="fill:url(#SVGID_25_);" d="M354.925,109.68c0.5,9.13-0.66,17.42-3.31,24.09c-5.73-10-15.66-18.04-29.17-23.54
		c-19.01-7.74-42.77-9.02-60.73-3.87c10.22-21.94,8.78-39.36,6.52-48.87l80.16,25.11C351.915,89.57,354.385,99.76,354.925,109.68z"
		/>
	<path d="M421.385,39.73c1.63,1.49,1.73,4.02,0.23,5.65l-26.29,28.53l13.32,2.14c1.4,0.23,2.57,1.17,3.09,2.49
		c0.51,1.32,0.3,2.81-0.57,3.92l-27.57,35.37c2.64,3.93,4.18,8.65,4.18,13.72c0,0.11,0,0.22,0,0.32c8.49,4.06,14,12.64,14,22.24
		c0,13.23-10.48,24.06-23.58,24.63c0,5.79-0.32,11.68-1,17.39c-1.56,13.32-5.61,30.95-15.79,43.75l32.34,8.93
		c2.13,0.59,3.37,2.8,2.79,4.92c-0.49,1.78-2.1,2.94-3.86,2.94c-0.35,0-0.71-0.05-1.07-0.15l-7.03-1.94
		c10.72,62.26-20.36,91.86-49.03,110.76c-0.67,0.44-1.43,0.66-2.2,0.66c-0.7,0-1.4-0.18-2.03-0.55c-1.31-0.78-2.07-2.23-1.96-3.75
		c1.01-13.31-1.46-23.7-7.33-30.98c-3.56,5.81-6.98,11.33-10.04,16.19c4.27,3.01,7.93,6.94,10.73,11.67
		c6.93,11.75,7.51,26.34,1.54,39.04c-3.03,6.43-8.19,14.18-12.19,19.84c2.11-0.7,4.08-1.56,5.84-2.62l7.19-4.32
		c1.27-0.77,2.85-0.77,4.12,0l7.18,4.32c10.28,6.18,27.65,6.18,37.93,0l7.18-4.32c1.27-0.77,2.86-0.77,4.13,0l14.1,8.48
		c1.89,1.14,2.51,3.6,1.37,5.49c-1.14,1.89-3.6,2.51-5.49,1.37l-12.04-7.25l-5.13,3.09c-12.73,7.65-33.44,7.65-46.17,0l-5.12-3.09
		l-5.12,3.09c-12.73,7.65-33.45,7.65-46.18,0l-5.12-3.09l-5.12,3.09c-6.36,3.82-14.73,5.74-23.09,5.74s-16.72-1.92-23.08-5.74
		l-5.12-3.09l-5.13,3.09c-12.73,7.65-33.44,7.65-46.17,0l-5.12-3.09l-5.12,3.09c-12.73,7.65-33.45,7.65-46.18,0l-5.12-3.09
		l-5.12,3.09c-12.73,7.65-33.44,7.65-46.17,0l-5.12-3.09l-9.52,5.73c-1.9,1.14-4.36,0.53-5.49-1.37c-1.14-1.89-0.53-4.35,1.36-5.48
		l11.58-6.97c1.27-0.77,2.86-0.77,4.13,0l5.34,3.21c0.29-4.11,1.48-8.04,3.52-11.58c-3.99-3.73-6.29-8.94-6.29-14.56
		c0-9.82,7.11-18,16.45-19.68c-0.23-1.49-0.34-2.98-0.34-4.48c0-16.54,13.46-30,30-30c10.35,0,19.85,5.32,25.31,13.88
		c2.34-1.11,4.92-1.7,7.55-1.7c7.76,0,14.35,4.96,16.71,11.95c1.91-0.42,3.86-0.63,5.85-0.63c10.12,0,19.1,5.49,23.74,14.11
		c2.85-1.55,6.05-2.37,9.37-2.37c7.39,0,13.89,4.01,17.25,10.22c14.96-10.52,32.4-21.43,49.48-29.01c-0.49-0.19-0.97-0.39-1.45-0.57
		c-36.59-5.43-66.51,13.21-66.81,13.4c-0.65,0.42-1.4,0.63-2.14,0.63c-0.77,0-1.55-0.23-2.22-0.67c-1.31-0.88-1.99-2.45-1.72-4.01
		l2.52-14.78c-6.72,2.86-11.31,5-12.87,5.73c-0.55,0.26-1.13,0.39-1.71,0.39c-1.17,0-2.31-0.51-3.09-1.46
		c-1.16-1.41-1.22-3.44-0.13-4.91c3.05-4.15,5.82-8.28,8.35-12.4c-7.82-0.32-14.52-0.16-20.13-0.02c-2.73,0.07-5.31,0.13-7.67,0.13
		c-1.48,0-2.84-0.82-3.54-2.13c-0.69-1.32-0.6-2.9,0.24-4.13c13.46-19.71,21.58-36.46,26.37-50.23c-0.25,0.01-0.51,0.03-0.76,0.03
		c-16.78,0-30.44-13.66-30.44-30.44c0-3.15,0.47-6.22,1.41-9.17c-6.03-2.96-10.07-9.17-10.07-16.16c0-0.01,0-0.02,0-0.03
		c-13.85-1.68-24.61-13.51-24.61-27.8c0-12.41,8.16-23,19.4-26.64c-2.54-3.63-3.95-7.99-3.95-12.58c0-10.27,7.07-18.92,16.6-21.33
		c-0.99-3.21-1.49-6.55-1.49-9.98c0-1.77,0.15-3.53,0.42-5.25l-49.75-50.01c-1-1.01-1.39-2.48-1.02-3.85
		c0.36-1.38,1.44-2.46,2.81-2.83l16.82-4.58l-24.92-31.76c-1.36-1.74-1.06-4.25,0.68-5.61c1.74-1.37,4.25-1.06,5.62,0.67
		l28.64,36.51c0.83,1.05,1.07,2.45,0.65,3.72c-0.42,1.28-1.45,2.25-2.75,2.6l-16.01,4.36l40.36,40.57l-16.81-27.36
		c-0.66-1.08-0.77-2.41-0.3-3.59c0.48-1.18,1.49-2.06,2.72-2.38l18.27-4.69l-34.73-61.3c-1.09-1.92-0.42-4.36,1.5-5.45
		c1.93-1.09,4.37-0.41,5.46,1.51l37.3,65.84c0.62,1.08,0.69,2.39,0.21,3.53c-0.49,1.15-1.48,2-2.69,2.31l-18.08,4.65l13.03,21.21
		c6.36-7.98,16.01-12.74,26.48-12.74c8.43,0,16.45,3.11,22.64,8.66c3.33-3.33,7.88-5.27,12.73-5.27c1.49,0,2.96,0.18,4.38,0.54
		c2.61-9.26,11.15-16.09,21.18-16.09c4.8,0,9.42,1.58,13.19,4.4c0.5-3.47,0.8-7.19,0.8-11.17l-13.78-4.06
		c-2.12-0.62-3.33-2.85-2.71-4.97c0.62-2.12,2.85-3.33,4.97-2.7l33.05,9.73c-0.56-5.43-1.76-9.32-2.5-11.3l-8.88-2.78
		c-2.11-0.66-3.28-2.91-2.62-5.01c0.66-2.11,2.9-3.28,5.01-2.62l53.96,16.9l3.55-25.64c0.3-2.19,2.32-3.72,4.51-3.41
		c2.19,0.3,3.71,2.32,3.41,4.51l-3.72,26.96l48.96,15.34c2.11,0.66,3.28,2.91,2.62,5.01c-0.54,1.72-2.11,2.81-3.82,2.81
		c-0.39,0-0.79-0.06-1.19-0.18l-2.45-0.77c2.17,6.16,3.78,13.52,4.4,21.18c0.11,0,0.23-0.01,0.35-0.01c5.61,0,10.78,1.88,14.93,5.05
		l22.65-29.07l-13.99-2.25c-1.45-0.24-2.66-1.25-3.14-2.64c-0.48-1.4-0.16-2.94,0.84-4.02l31.33-34
		C417.235,38.33,419.765,38.23,421.385,39.73z M393.775,154.11c0-7.22-4.61-13.58-11.47-15.83c-1.85-0.61-2.99-2.45-2.72-4.37
		c0.13-0.91,0.19-1.66,0.19-2.36c0-2.45-0.55-4.78-1.51-6.89l-2.44,3.13c-0.78,1.02-1.96,1.55-3.15,1.55
		c-0.86,0-1.73-0.28-2.46-0.85c-1.74-1.36-2.05-3.87-0.69-5.61l3.59-4.62c-2.79-2.11-6.25-3.37-10-3.37c-0.03,0-0.06,0-0.09,0
		c-0.13,8.99-1.8,17.97-5.66,25.54l21.77,6.4c2.12,0.62,3.33,2.85,2.71,4.97c-0.51,1.74-2.11,2.87-3.83,2.87
		c-0.38,0-0.76-0.05-1.13-0.16l-0.87-0.26c0.99,5.06,1.65,10.64,1.97,16.48C386.765,170.27,393.775,163,393.775,154.11z
		 M368.895,320.25c10.06-18.85,12.37-41.14,7.09-68.04l-25.21-6.96l4.85,16.32c1-0.26,2.09-0.13,3.05,0.43
		c1.9,1.13,2.53,3.58,1.4,5.48c-5.35,9.02-20.02,33.69-33.68,56.09c7.1,7.5,10.85,17.78,11.16,30.68
		C348.115,346.65,360.665,335.67,368.895,320.25z M359.355,228.58c12.66-22.42,12.47-58.58,7.9-76.9l-17.09-5.02l-31.42-9.24
		l19.38,65.24C352.775,209.88,358.275,219.42,359.355,228.58z M351.615,133.77c2.65-6.67,3.81-14.96,3.31-24.09
		c-0.54-9.92-3.01-20.11-6.53-27.08l-80.16-25.11c2.26,9.51,3.7,26.93-6.52,48.87c17.96-5.15,41.72-3.87,60.73,3.87
		C335.955,115.73,345.885,123.77,351.615,133.77z M351.125,237.04c1.67-9.45-1.51-17.08-9.64-23.08l6.61,22.24L351.125,237.04z
		 M349.055,267.56l-35.52-119.6c-3.25,16.57-8.37,44.59-12.33,75.37c-6.52,50.67-7.62,90.54-3.31,117.1
		c4.3-19.16,12.67-40.61,28.82-57C335.755,274.25,344.325,269.63,349.055,267.56z M305.705,125.25l38.19,11.23
		c-6.09-9.66-16.24-15.49-24.47-18.84c-3.87-1.58-7.95-2.85-12.14-3.85L305.705,125.25z M343.385,279.87
		c-3.43,2.32-7.34,5.43-11.35,9.56c-7.42,7.63-13.05,16.5-17.32,25.7c1.96,0.95,3.8,2.01,5.51,3.18
		C328.365,304.95,336.825,290.86,343.385,279.87z M319.475,371.78c-0.75-3.19-1.96-6.27-3.65-9.13c-2.14-3.62-4.91-6.64-8.13-8.99
		c-0.73,1.13-1.41,2.18-2.06,3.18c1.03,0.62,2,1.31,2.93,2.09C313.245,362.83,316.875,367.14,319.475,371.78z M315.395,397.38
		c2.71-12.56-1.31-23.43-11.95-32.31c-0.35-0.29-0.71-0.55-1.07-0.81c-2.13,22.64-12.24,46.81-15.25,53.6
		c4.26,1.23,8.98,1.75,13.63,1.57c0.08-0.11,0.16-0.22,0.25-0.34C303.595,415.59,310.865,405.75,315.395,397.38z M316.055,325.14
		c-1.37-0.96-2.86-1.84-4.45-2.63c-2.48,6.44-4.36,12.92-5.79,19.17C308.945,336.71,312.425,331.07,316.055,325.14z M308.125,134.3
		l-57.48-16.89c-0.9,13.46-5.89,49.3-33.4,76.46c19.21-2.66,48.32-4.46,75.03-2.08c1.86,0.17,3.59,0.34,5.23,0.53
		C301.845,164.79,306.315,142.85,308.125,134.3z M297.945,122.97l1.48-10.71c-11.67-1.75-23.61-1.33-33.66,1.26L297.945,122.97z
		 M296.285,200.23c-0.25-0.03-0.52-0.06-0.78-0.08l-3.14,20.67l0.99,0.28C294.285,213.94,295.275,206.95,296.285,200.23z
		 M292.345,229.12l-97.24-26.86c2.51,8.07,5.98,22.2,6.61,40.28c0.83,23.55-3.27,58.05-25.82,94.08c21.17-9,63.46-25.1,99.54-27.28
		c4.13-0.26,8.12-0.31,11.9-0.18C286.855,284.04,289.115,255.7,292.345,229.12z M292.355,353.01c-0.42-1.62-0.82-3.27-1.19-4.98
		c-0.2-0.01-1.43-0.05-1.84-0.05c-41.34,0-109.04,56.68-121.36,67.3c1.45,0.8,3.03,1.49,4.7,2.06c6.46-5.41,28.39-23.33,52.88-38.72
		C254.145,360.64,276.495,352.09,292.355,353.01z M294.585,361.22c-27.74-4.65-83.85,35.22-111.84,58.12
		c7.99,0.58,16.35-0.91,22.33-4.5l7.18-4.32c1.27-0.77,2.86-0.77,4.13,0l7.18,4.32c10.28,6.18,27.65,6.18,37.93,0l7.18-4.32
		c1.27-0.77,2.86-0.77,4.12,0l6.97,4.19C282.615,408.24,293.095,383.12,294.585,361.22z M275.815,341.52
		c4.83-1.01,9.49-1.55,13.91-1.52c-1.08-7.08-1.77-14.75-2.13-22.83c-2.69-0.11-5.5-0.11-8.41-0.01L275.815,341.52z M284.615,218.68
		l2.93-19.25c-23.46-1.71-48.22-0.31-65.78,1.89L284.615,218.68z M267.445,343.69l3.59-25.98c-18.23,1.71-37.79,6.76-55.04,12.37
		c14.58,3.69,29.92,8.88,45.77,15.49C263.675,344.89,265.565,344.26,267.445,343.69z M261.765,74.31l-13.81-4.07
		c-0.39,15.13-4.59,26.84-9.29,35.31l12.59,3.7C259.025,95.25,261.395,83.15,261.765,74.31z M242.745,115.09l-8.54-2.51
		c-1.19,1.63-2.34,3.08-3.4,4.3l11.62,2.33C242.585,117.58,242.685,116.19,242.745,115.09z M241.395,127.16l-19.51-3.9
		c-1.53-0.31-2.74-1.48-3.1-3c-0.36-1.53,0.2-3.12,1.43-4.08c0.28-0.22,2.72-2.2,5.79-6.01l-1.12-0.33
		c-2.12-0.62-3.34-2.84-2.71-4.97c0.62-2.12,2.84-3.33,4.96-2.71l3.66,1.08c2.38-4.02,4.7-8.98,6.41-14.95
		c-2.63-3.52-6.79-5.62-11.2-5.62c-7.62,0-13.9,6.21-13.99,13.84c-0.02,1.45-0.83,2.79-2.11,3.48c-1.28,0.68-2.84,0.62-4.06-0.17
		c-1.62-1.05-3.49-1.6-5.4-1.6c-3.7,0-7.08,2.03-8.82,5.3c-0.63,1.18-1.8,1.96-3.12,2.1c-1.33,0.13-2.63-0.4-3.49-1.42
		c-4.95-5.96-12.22-9.37-19.94-9.37c-9,0-17.21,4.61-21.94,12.15l14.37,23.39c1.06,1.73,0.66,3.98-0.93,5.23
		c-0.73,0.58-1.61,0.86-2.48,0.86c-1.03,0-2.06-0.4-2.83-1.18l-11.97-12.03c0.3,3.15,1.15,6.18,2.58,9.04
		c0.62,1.23,0.55,2.71-0.18,3.88c-0.78,1.27-2.22,1.98-3.72,1.89c-7.68,0.04-13.92,6.31-13.92,14c0,4.83,2.45,9.26,6.56,11.85
		c1.51,0.94,2.2,2.77,1.72,4.48c-0.49,1.71-2.05,2.89-3.83,2.9c-10.97,0.05-19.9,9.02-19.9,19.99c0,11.03,8.97,20,20,20
		c0.32,0,0.63-0.01,0.95-0.02c1.29-0.07,2.53,0.49,3.34,1.5c0.8,1.01,1.07,2.34,0.72,3.58c-0.27,0.93-0.4,1.86-0.4,2.77
		c0,4.79,3.4,8.91,8.09,9.81c1.23,0.24,2.27,1.03,2.83,2.14c0.56,1.12,0.56,2.43,0.01,3.55c-1.5,3.08-2.27,6.39-2.27,9.83
		c0,12.37,10.07,22.44,22.44,22.44c1.13,0,2.23-0.09,3.35-0.26c5.7-20.47,3.62-32.94,2.49-37.26l-12.55-3.5
		c-2.13-0.6-3.38-2.8-2.78-4.93c0.59-2.13,2.8-3.37,4.92-2.78l32.64,9.09c-1.91-13.91-5.2-23.76-6.61-27.56l-23.5-6.49
		c-2.12-0.58-3.37-2.79-2.79-4.92c0.59-2.13,2.8-3.38,4.92-2.79l38.17,10.54c2.6-1.99,5.05-4.07,7.33-6.22
		c1.71-5.42,9.93-33.5,3.2-52.23l-8.21-2.39c-2.13-0.62-3.34-2.84-2.73-4.96c0.62-2.12,2.84-3.34,4.96-2.72l32.3,9.39
		C240.275,133.38,240.915,130.11,241.395,127.16z M237.285,144.6l-15.11-4.39c2.77,12.11,1.33,25.91-0.71,36.42
		C229.195,166,234.135,154.71,237.285,144.6z M224.995,340.85c-8.01-2.38-15.81-4.31-23.36-5.8c-4.93,1.79-9.51,3.57-13.65,5.23
		l-1.99,11.65C194.005,348.07,207.895,342.6,224.995,340.85z M174.315,323.45c16.92-31.05,20.12-60.18,19.41-80.63
		c-0.09-2.41-0.23-4.75-0.41-7.01l-14.47-4.03c2.07,13.08,1.66,43.64-29.29,91.43C156.245,323.04,164.455,322.85,174.315,323.45z
		 M195.005,383.61c-1.85-4.12-6.02-6.94-10.66-6.94c-3.12,0-6.05,1.22-8.26,3.43c-1,0.99-2.44,1.39-3.8,1.05
		c-1.37-0.34-2.45-1.38-2.86-2.72c-2.4-7.95-9.88-13.5-18.19-13.5c-2.56,0-5.03,0.5-7.36,1.48c-1.21,0.51-2.59,0.4-3.7-0.3
		c-1.11-0.71-1.8-1.91-1.86-3.22c-0.2-5.2-4.44-9.28-9.64-9.28c-2.34,0-4.61,0.86-6.37,2.42c-0.96,0.84-2.26,1.18-3.51,0.91
		c-1.25-0.28-2.29-1.14-2.8-2.31c-3.52-8.02-11.44-13.2-20.18-13.2c-12.13,0-22,9.87-22,22c0,2.36,0.38,4.71,1.14,6.98
		c0.42,1.29,0.17,2.71-0.68,3.76c-0.85,1.06-2.18,1.62-3.53,1.48c-0.38-0.04-0.72-0.06-1.04-0.06c-6.62,0-12,5.38-12,12
		c0,4.22,2.16,8.05,5.78,10.25c0.98,0.59,1.66,1.58,1.87,2.71c0.2,1.12-0.09,2.29-0.8,3.19c-2.72,3.45-4.16,7.59-4.16,11.98
		c0,0.63,0.04,1.24,0.1,1.85c10.14,3.24,23.32,2.34,31.75-2.73l7.18-4.32c1.27-0.77,2.86-0.77,4.12,0l7.19,4.32
		c10.28,6.18,27.64,6.18,37.92,0l7.19-4.32c1.27-0.77,2.85-0.77,4.12,0l0.76,0.46C162.285,409.58,176.015,397.46,195.005,383.61z"/>
	<path d="M376.405,445.67c1.89,1.14,2.5,3.6,1.36,5.49c-1.13,1.89-3.59,2.5-5.49,1.36l-12.04-7.24l-5.12,3.08
		c-6.36,3.83-14.73,5.74-23.09,5.74c-8.36,0-16.72-1.91-23.08-5.74l-5.12-3.08l-5.13,3.08c-4.65,2.8-10.47,4.68-16.83,5.43
		c-2.2,0.25-4.18-1.32-4.44-3.51c-0.26-2.19,1.31-4.18,3.51-4.44c5.23-0.62,9.95-2.12,13.64-4.33l7.18-4.33
		c1.27-0.76,2.86-0.76,4.13,0l7.18,4.33c10.28,6.18,27.65,6.18,37.93,0l7.18-4.33c1.27-0.76,2.86-0.76,4.12,0L376.405,445.67z"/>
	<path d="M308.165,382.75c2.16,0.46,3.55,2.58,3.09,4.74l-2.67,12.67c-0.39,1.88-2.05,3.18-3.91,3.18c-0.27,0-0.55-0.03-0.82-0.09
		c-2.17-0.46-3.55-2.58-3.09-4.74l2.66-12.67C303.885,383.68,306.005,382.3,308.165,382.75z"/>
	<path d="M276.835,376.09c2.16,0.45,3.54,2.57,3.09,4.74l-2.67,12.66c-0.4,1.89-2.06,3.18-3.91,3.18c-0.27,0-0.55-0.03-0.83-0.09
		c-2.16-0.45-3.54-2.57-3.09-4.74l2.67-12.66C272.545,377.02,274.665,375.63,276.835,376.09z"/>
	<path d="M233.205,448.26c0.46,2.16-0.91,4.29-3.07,4.75c-3.62,0.78-7.33,1.16-11.01,1.16c-8.46,0-16.71-2.02-23.02-5.81l-5.12-3.08
		l-5.12,3.08c-6.21,3.74-14.4,5.79-23.08,5.79c-0.04,0-0.08,0-0.11,0c-2.21,0-4-1.8-4-4.01c0.01-2.2,1.8-3.99,4-3.99
		c0.03-0.01,0.07,0,0.1,0c7.15,0,14.06-1.69,18.97-4.64l7.18-4.33c1.27-0.76,2.86-0.76,4.12,0l7.19,4.33
		c7.25,4.36,18.33,5.81,28.21,3.68C230.605,444.72,232.735,446.1,233.205,448.26z"/>
	<path d="M117.685,446.15c2.21,0,4,1.79,4,4s-1.79,4-4,4c-8.68,0-16.88-2.06-23.08-5.79l-5.13-3.08l-5.12,3.08
		c-1.89,1.14-4.35,0.53-5.49-1.36c-1.14-1.9-0.52-4.36,1.37-5.49l7.18-4.33c1.27-0.76,2.86-0.76,4.13,0l7.18,4.33
		C103.635,444.46,110.545,446.15,117.685,446.15z"/>
</g>
</svg>